<?xml version="1.0" encoding="UTF-8"?>
<svg id="Vrstva_2" data-name="Vrstva 2" xmlns="http://www.w3.org/2000/svg" viewBox="0 0 213.69 213.69">
  <defs>
    <style>
      .cls-1 {
        opacity: .2;
      }

      .cls-2 {
        fill: #243980;
        stroke-width: 0px;
      }

      .cls-3 {
        fill: none;
        stroke: #b2b2b2;
        stroke-miterlimit: 10;
        stroke-width: .5px;
      }
    </style>
  </defs>
  <g id="Vrstva_1-2" data-name="Vrstva 1">
    <g>
      <g>
        <rect class="cls-3" x=".25" y=".25" width="213.19" height="213.19"/>
        <line class="cls-3" x1=".25" y1="199.23" x2="213.44" y2="199.23"/>
        <line class="cls-3" x1=".25" y1="185.02" x2="213.44" y2="185.02"/>
        <line class="cls-3" x1=".25" y1="170.8" x2="213.44" y2="170.8"/>
        <line class="cls-3" x1=".25" y1="156.59" x2="213.44" y2="156.59"/>
        <line class="cls-3" x1=".25" y1="142.38" x2="213.44" y2="142.38"/>
        <line class="cls-3" x1=".25" y1="128.16" x2="213.44" y2="128.16"/>
        <line class="cls-3" x1=".25" y1="113.95" x2="213.44" y2="113.95"/>
        <line class="cls-3" x1=".25" y1="99.74" x2="213.44" y2="99.74"/>
        <line class="cls-3" x1=".25" y1="85.53" x2="213.44" y2="85.53"/>
        <line class="cls-3" x1=".25" y1="71.31" x2="213.44" y2="71.31"/>
        <line class="cls-3" x1=".25" y1="57.1" x2="213.44" y2="57.1"/>
        <line class="cls-3" x1=".25" y1="42.89" x2="213.44" y2="42.89"/>
        <line class="cls-3" x1=".25" y1="28.68" x2="213.44" y2="28.68"/>
        <line class="cls-3" x1=".25" y1="14.46" x2="213.44" y2="14.46"/>
        <line class="cls-3" x1="199.23" y1=".25" x2="199.23" y2="213.44"/>
        <line class="cls-3" x1="185.02" y1=".25" x2="185.02" y2="213.44"/>
        <line class="cls-3" x1="170.8" y1=".25" x2="170.8" y2="213.44"/>
        <line class="cls-3" x1="156.59" y1=".25" x2="156.59" y2="213.44"/>
        <line class="cls-3" x1="142.38" y1=".25" x2="142.38" y2="213.44"/>
        <line class="cls-3" x1="128.17" y1=".25" x2="128.17" y2="213.44"/>
        <line class="cls-3" x1="113.95" y1=".25" x2="113.95" y2="213.44"/>
        <line class="cls-3" x1="99.74" y1=".25" x2="99.74" y2="213.44"/>
        <line class="cls-3" x1="85.53" y1=".25" x2="85.53" y2="213.44"/>
        <line class="cls-3" x1="71.31" y1=".25" x2="71.31" y2="213.44"/>
        <line class="cls-3" x1="57.1" y1=".25" x2="57.1" y2="213.44"/>
        <line class="cls-3" x1="42.89" y1=".25" x2="42.89" y2="213.44"/>
        <line class="cls-3" x1="28.68" y1=".25" x2="28.68" y2="213.44"/>
        <line class="cls-3" x1="14.46" y1=".25" x2="14.46" y2="213.44"/>
      </g>
      <rect class="cls-3" x=".25" y=".25" width="213.19" height="213.19"/>
    </g>
    <g class="cls-1" transform="translate(20 90) scale(0.7)" clip-path="url(#clip0_709629_779)">
      <path d="M35.2794 45.9998H23.2086L7.21289 30.8679L5.1867 28.8876C1.84124 25.7151 0 21.4769 0 16.9528C0 12.4287 1.84535 8.17826 5.19903 5.00162C12.0872 -1.52314 23.2908 -1.52314 30.179 5.00162L30.9764 5.78149L31.8888 4.89138C38.777 -1.63339 49.9806 -1.63339 56.8688 4.89138C60.2225 8.06801 62.0678 12.3103 62.0678 16.8426C62.0678 21.3748 60.2266 25.6089 56.8811 28.7815L54.7193 30.8924L50.4861 34.8898C49.7669 35.5676 48.6325 35.539 47.9462 34.8244C47.2639 34.1099 47.2927 32.983 48.0119 32.3011L52.2328 28.3119L54.3946 26.2051C57.0291 23.7103 58.4799 20.3826 58.4799 16.8385C58.4799 13.2944 57.0291 9.96665 54.3946 7.47188C48.875 2.24554 39.899 2.24146 34.3794 7.46372L30.9805 10.7792L27.6967 7.56988C22.1729 2.3517 13.1969 2.3517 7.68142 7.57804C5.04697 10.0728 3.59617 13.4005 3.59617 16.9446C3.59617 20.4887 5.04697 23.8165 7.68142 26.3112L7.70197 26.3316L9.72815 28.3078L24.6553 42.4271H35.2877C38.4153 42.4271 40.9634 39.8997 40.9634 36.7884V22.7467C40.9634 19.6395 38.4194 17.108 35.2877 17.108H25.9376V34.9837C25.9376 35.9677 25.1321 36.768 24.1416 36.768C23.1511 36.768 22.3456 35.9677 22.3456 34.9837V13.5393H35.2877C40.3963 13.5393 44.5555 17.6673 44.5555 22.7467V36.7884C44.5555 41.8637 40.4004 45.9958 35.2877 45.9958L35.2794 45.9998Z" fill="#EC5F78"/>
      <path d="M37.4084 32.8729C38.398 32.8729 39.2003 32.0759 39.2003 31.0927C39.2003 30.1095 38.398 29.3125 37.4084 29.3125C36.4187 29.3125 35.6165 30.1095 35.6165 31.0927C35.6165 32.0759 36.4187 32.8729 37.4084 32.8729Z" fill="#EC5F78"/>
      <path d="M127.629 32.0726H133.288C134.324 32.0726 135.298 33.0689 135.298 34.1999C135.298 35.3309 134.361 36.3272 133.288 36.3272H123.112C122.077 36.3272 120.938 35.6616 120.938 34.3306V34.2326C120.938 33.5017 121.205 32.7014 121.875 32.0032L128.303 25.0538H123.149C122.109 25.0538 121.139 24.0575 121.139 22.9265C121.139 21.7955 122.077 20.7992 123.149 20.7992H132.824C133.864 20.7992 134.998 21.4648 134.998 22.7958V22.8938C134.998 23.6247 134.731 24.425 134.061 25.1232L127.633 32.0726H127.629ZM128.936 18.6025C130.309 18.6025 130.979 17.4715 131.381 16.806L133.021 13.9111C133.424 13.2782 133.021 12.3146 132.117 12.3146C131.616 12.3146 131.044 12.4452 130.14 13.3803L128.2 15.4096L126.26 13.3803C125.356 12.4493 124.789 12.3146 124.284 12.3146C123.379 12.3146 122.977 13.2782 123.379 13.9111L125.019 16.806C125.422 17.4715 126.092 18.6025 127.465 18.6025H128.936Z" fill="#324F9E"/>
      <path d="M142.56 34.4327C142.56 35.5963 141.488 36.4946 140.218 36.4946C138.948 36.4946 137.908 35.5637 137.875 34.4327V22.6938C137.908 21.5628 138.981 20.6318 140.218 20.6318C141.455 20.6318 142.56 21.5301 142.56 22.6938V34.4327ZM138.376 16.5079L139.881 13.7151C140.382 12.8168 141.019 11.6205 142.996 12.1186C144.369 12.4494 145.104 13.417 143.867 14.9114L141.459 17.3735C140.423 18.4025 139.753 18.6026 138.948 18.6026C137.978 18.6026 137.809 17.5736 138.381 16.5079H138.376Z" fill="#324F9E"/>
      <path d="M147.311 20.7992V16.7407C147.344 15.6097 148.417 14.6787 149.654 14.6787C150.891 14.6787 151.997 15.577 151.997 16.7407V20.7992H153.772C154.709 20.7992 155.445 21.6322 155.445 22.6285C155.445 23.6247 154.709 24.425 153.772 24.4577H151.997V34.4367C151.997 35.6004 150.924 36.4987 149.654 36.4987C148.384 36.4987 147.344 35.5678 147.311 34.4367V24.4577H146.037C145.1 24.425 144.365 23.5921 144.365 22.6285C144.365 21.6649 145.1 20.7992 146.037 20.7992H147.311Z" fill="#324F9E"/>
      <path d="M177.408 14.2459C177.441 13.1149 178.514 12.184 179.751 12.184C180.988 12.184 182.094 13.0822 182.094 14.2459V34.4327C182.094 35.5964 181.021 36.4946 179.751 36.4946C178.481 36.4946 177.441 35.5637 177.408 34.4327V34.1346C176.405 35.7638 174.494 36.6294 172.723 36.6294C168.741 36.6294 165.124 33.7018 165.124 28.549C165.124 23.3961 168.741 20.5012 172.723 20.5012C173.726 20.5012 176.073 20.934 177.408 22.996V14.25V14.2459ZM173.627 32.5055C175.736 32.5055 177.445 30.6436 177.445 28.5816C177.445 26.5197 175.74 24.6578 173.627 24.6578C171.285 24.6578 169.945 26.5197 169.945 28.5816C169.945 30.6436 171.285 32.5055 173.627 32.5055Z" fill="#324F9E"/>
      <path d="M184.769 28.5162C184.769 23.6287 188.419 20.5011 192.972 20.5011C197.526 20.5011 201.209 23.6287 201.209 28.5162C201.209 33.4036 197.526 36.6293 192.972 36.6293C188.419 36.6293 184.769 33.4036 184.769 28.5162ZM196.519 28.5162C196.519 26.4216 194.912 24.9925 192.972 24.9925C191.033 24.9925 189.458 26.4216 189.458 28.5162C189.458 30.6108 191.065 32.142 192.972 32.142C194.879 32.142 196.519 30.6476 196.519 28.5162Z" fill="#324F9E"/>
      <path d="M228.457 34.4326C228.457 35.5963 227.385 36.4945 226.115 36.4945C224.845 36.4945 223.805 35.5636 223.772 34.4326V28.0467C223.772 26.0174 222.535 24.9517 221.162 24.9517C219.691 24.9517 218.52 25.85 218.52 28.112V34.4326C218.52 35.5963 217.447 36.4945 216.177 36.4945C214.907 36.4945 213.867 35.5636 213.834 34.4326V27.9487C213.834 25.9847 212.597 24.9558 211.257 24.9558C209.852 24.9558 208.545 25.752 208.545 28.1161V34.4367C208.545 35.6004 207.472 36.4986 206.202 36.4986C204.932 36.4986 203.892 35.5677 203.86 34.4367V22.6978C203.892 21.5668 204.965 20.6359 206.202 20.6359C207.439 20.6359 208.545 21.5341 208.545 22.6978V23.0653C209.281 21.4361 210.953 20.5052 212.63 20.5052C215.108 20.5052 216.748 21.3014 217.784 23.4328C218.922 20.9707 221.232 20.4725 222.338 20.4725C226.053 20.4725 228.433 22.8326 228.466 27.524V34.4408L228.457 34.4326Z" fill="#324F9E"/>
      <path d="M243.315 22.6937C243.348 21.5627 244.42 20.6318 245.657 20.6318C246.895 20.6318 248 21.53 248 22.6937V34.4326C248 35.5963 246.927 36.4945 245.657 36.4945C244.387 36.4945 243.348 35.5636 243.315 34.4326V34.1345C242.312 35.7637 240.401 36.6293 238.629 36.6293C234.647 36.6293 231.03 33.7017 231.03 28.5489C231.03 23.396 234.647 20.5011 238.629 20.5011C239.632 20.5011 241.979 20.9339 243.315 22.9959V22.6978V22.6937ZM239.534 32.5054C241.642 32.5054 243.352 30.6435 243.352 28.5815C243.352 26.5196 241.646 24.6577 239.534 24.6577C237.191 24.6577 235.851 26.5196 235.851 28.5815C235.851 30.6435 237.191 32.5054 239.534 32.5054Z" fill="#324F9E"/>
      <path d="M82.0132 36.3313C81.409 36.3313 80.8748 35.8005 80.8748 35.2003V14.5358C80.8748 13.9356 81.409 13.4048 82.0132 13.4048H89.5508C96.0814 13.4048 99.7639 18.3943 99.7639 24.9191C99.7639 31.4438 96.0814 36.3313 89.5508 36.3313H82.0132ZM83.0859 34.1346H89.5508C94.8772 34.1346 97.5569 30.2067 97.5569 24.9191C97.5569 19.6315 94.8772 15.6015 89.5508 15.6015H83.0859V34.1346Z" fill="#324F9E"/>
      <path d="M102.25 28.5122C102.25 23.588 105.97 20.4603 110.421 20.4603C114.872 20.4603 118.591 23.588 118.591 28.5122C118.591 33.4364 114.872 36.6661 110.421 36.6661C105.97 36.6661 102.25 33.4404 102.25 28.5122ZM116.384 28.5122C116.384 24.9191 113.672 22.657 110.421 22.657C107.17 22.657 104.461 24.9191 104.461 28.5122C104.461 32.1053 107.174 34.4694 110.421 34.4694C113.668 34.4694 116.384 32.1053 116.384 28.5122Z" fill="#324F9E"/>
    </g>
  </g>
</svg>